# Blender v2.92.0 OBJ File: ''
# www.blender.org
mtllib Fence_Post.mtl
o Cube_Cube.010
v -0.158621 -0.000000 0.158621
v -0.158621 -0.000000 -0.158621
v 0.158621 -0.000000 0.158621
v 0.158621 -0.000000 -0.158621
v -0.095984 1.767755 0.095984
v -0.158621 1.666532 0.158621
v -0.095984 1.767755 -0.095984
v -0.158621 1.666532 -0.158621
v 0.095984 1.767755 0.095984
v 0.158621 1.666532 0.158621
v 0.095984 1.767755 -0.095984
v 0.158621 1.666532 -0.158621
vt 0.639315 0.514315
vt 0.860685 0.514315
vt 0.860685 0.735685
vt 0.639315 0.735685
vt 0.375000 0.500000
vt 0.610685 0.500000
vt 0.610685 0.750000
vt 0.375000 0.750000
vt 0.375000 0.000000
vt 0.610685 0.000000
vt 0.610685 0.250000
vt 0.375000 0.250000
vt 0.125000 0.500000
vt 0.125000 0.750000
vt 0.875000 0.500000
vt 0.875000 0.750000
vt 0.625000 0.500000
vt 0.625000 0.750000
vt 0.610685 1.000000
vt 0.375000 1.000000
vn 0.0000 1.0000 0.0000
vn 1.0000 0.0000 0.0000
vn -1.0000 0.0000 0.0000
vn 0.0000 -1.0000 0.0000
vn 0.0000 0.0000 -1.0000
vn -0.8504 0.5262 0.0000
vn 0.0000 0.5262 -0.8504
vn 0.8504 0.5262 0.0000
vn 0.0000 0.5262 0.8504
vn 0.0000 0.0000 1.0000
g Cube_Cube.010_FencePost
usemtl FencePost
s off
f 11/1/1 7/2/1 5/3/1 9/4/1
f 4/5/2 12/6/2 10/7/2 3/8/2
f 1/9/3 6/10/3 8/11/3 2/12/3
f 2/13/4 4/5/4 3/8/4 1/14/4
f 2/12/5 8/11/5 12/6/5 4/5/5
f 5/3/6 7/2/6 8/15/6 6/16/6
f 7/2/7 11/1/7 12/17/7 8/15/7
f 11/1/8 9/4/8 10/7/8 12/6/8
f 9/4/9 5/3/9 6/16/9 10/18/9
f 3/8/10 10/7/10 6/19/10 1/20/10
